<svg width="22" height="22" viewBox="0 0 22 22" fill="none" xmlns="http://www.w3.org/2000/svg">
<path d="M4 11C4 9.14348 4.7375 7.36301 6.05025 6.05025C7.36301 4.7375 9.14348 4 11 4C12.8565 4 14.637 4.7375 15.9497 6.05025C17.2625 7.36301 18 9.14348 18 11V15.333C18 16.885 18 17.66 17.788 18.286C17.5908 18.867 17.2626 19.3948 16.8287 19.8287C16.3948 20.2626 15.867 20.5908 15.286 20.788C14.66 21 13.885 21 12.333 21H9.667C8.115 21 7.34 21 6.714 20.788C6.133 20.5908 5.60516 20.2626 5.1713 19.8287C4.73745 19.3948 4.40922 18.867 4.212 18.286C4 17.66 4 16.885 4 15.333V11Z" stroke="black" stroke-width="1.5" stroke-linecap="round" stroke-linejoin="round"/>
<path d="M4 16C5.65 14.17 8.173 13 11 13C13.827 13 16.35 14.17 18 16M10 9H12M8 5V4C8 3.068 8 2.602 8.152 2.235C8.25251 1.99218 8.3999 1.77155 8.58572 1.58572C8.77155 1.3999 8.99218 1.25251 9.235 1.152C9.602 1 10.068 1 11 1C11.932 1 12.398 1 12.765 1.152C13.0078 1.25251 13.2284 1.3999 13.4143 1.58572C13.6001 1.77155 13.7475 1.99218 13.848 2.235C14 2.602 14 3.068 14 4V5M4 18H2.714C2.25942 18 1.82346 17.8194 1.50202 17.498C1.18058 17.1765 1 16.7406 1 16.286V15C1 14.2044 1.31607 13.4413 1.87868 12.8787C2.44129 12.3161 3.20435 12 4 12M18 18H19.286C20.233 18 21 17.233 21 16.286V15C21 14.2044 20.6839 13.4413 20.1213 12.8787C19.5587 12.3161 18.7956 12 18 12" stroke="black" stroke-width="1.5" stroke-linecap="round" stroke-linejoin="round"/>
</svg>
