<svg width="22" height="20" viewBox="0 0 22 20" fill="none" xmlns="http://www.w3.org/2000/svg">
<path d="M1 5C1 3.6 1 2.9 1.272 2.365C1.51173 1.89435 1.89435 1.51173 2.365 1.272C2.9 1 3.6 1 5 1C6.4 1 7.1 1 7.635 1.272C8.10565 1.51173 8.48827 1.89435 8.728 2.365C9 2.9 9 3.6 9 5M1 5V15C1 16.4 1 17.1 1.272 17.635C1.5119 18.1053 1.89451 18.4875 2.365 18.727C2.9 19 3.6 19 5 19C6.4 19 7.1 19 7.635 18.727C8.10549 18.4875 8.4881 18.1053 8.728 17.635C9 17.1 9 16.4 9 15V5M1 5H9M5 15H5.009M16.781 14.695L16.79 14.693M11 6L17.5 4M10.449 6.268C10.094 4.938 9.916 4.273 10.039 3.696C10.146 3.18862 10.4106 2.72802 10.795 2.38C11.232 1.985 11.895 1.807 13.219 1.45C14.543 1.094 15.206 0.916 15.78 1.039C16.2862 1.14697 16.745 1.41313 17.09 1.799C17.484 2.237 17.662 2.902 18.017 4.232L20.551 13.732C20.906 15.062 21.084 15.727 20.961 16.304C20.854 16.8114 20.5894 17.272 20.205 17.62C19.768 18.015 19.105 18.193 17.781 18.55C16.457 18.906 15.795 19.084 15.22 18.961C14.714 18.8524 14.2554 18.5863 13.91 18.201C13.516 17.763 13.338 17.098 12.983 15.768L10.449 6.268Z" stroke="black" stroke-width="1.5" stroke-linecap="round" stroke-linejoin="round"/>
</svg>
