<svg width="20" height="22" viewBox="0 0 20 22" fill="none" xmlns="http://www.w3.org/2000/svg">
<path d="M12.3331 1H7.6671M18.9851 6.5C19.0021 7 19.0031 7.5 19.0021 8M1.0151 6.5C0.998099 7 0.997098 7.5 1.0001 8M18.4641 3.745C17.9796 2.78603 17.199 2.00864 16.2381 1.528M3.8201 1.5C2.83359 1.97785 2.03144 2.76665 1.5371 3.745M16.4951 11C18.4531 11 18.9931 11.638 18.9931 13.5C18.9931 16.032 19.2431 18.954 16.7451 20.397C15.7001 21 14.3001 21 11.4991 21H8.5001C5.7001 21 4.3001 21 3.2551 20.397C0.757099 18.954 1.0071 16.032 1.0071 13.5C1.0071 11.54 1.6441 11 3.5051 11H16.4951Z" stroke="black" stroke-width="1.5" stroke-linecap="round" stroke-linejoin="round"/>
</svg>
