<svg width="22" height="20" viewBox="0 0 22 20" fill="none" xmlns="http://www.w3.org/2000/svg">
<path d="M8 5H15.75C17.857 5 18.91 5 19.667 5.506C19.9943 5.72474 20.2753 6.00575 20.494 6.333C21 7.09 21 8.143 21 10.25C21 13.761 21 15.517 20.157 16.778C19.7921 17.3242 19.3232 17.7931 18.777 18.158C17.518 19 15.762 19 12.25 19H11C6.286 19 3.929 19 2.464 17.535C1 16.072 1 13.715 1 9V5.944C1 4.128 1 3.22 1.38 2.538C1.65114 2.05208 2.05208 1.65114 2.538 1.38C3.22 1 4.128 1 5.944 1C7.108 1 7.69 1 8.2 1.191C9.363 1.627 9.843 2.684 10.368 3.733L11 5" stroke="black" stroke-width="1.5" stroke-linecap="round" stroke-linejoin="round"/>
<path d="M14.5 10L15.42 10.793C15.807 11.126 16 11.293 16 11.5C16 11.707 15.807 11.874 15.42 12.207L14.5 13M7.5 10L6.58 10.793C6.193 11.126 6 11.293 6 11.5C6 11.707 6.193 11.874 6.58 12.207L7.5 13M12 9L10 14" stroke="black" stroke-width="1.5" stroke-linecap="round" stroke-linejoin="round"/>
</svg>
