<svg width="22" height="22" viewBox="0 0 22 22" fill="none" xmlns="http://www.w3.org/2000/svg">
<path d="M15 1H11C8.172 1 6.757 1 5.879 1.946C5 2.893 5 4.416 5 7.462V8.538C5 11.585 5 13.108 5.879 14.054C6.757 15 8.172 15 11 15H15C17.828 15 19.243 15 20.121 14.054C21 13.107 21 11.584 21 8.538V7.462C21 4.416 21 2.892 20.121 1.946C19.243 1 17.828 1 15 1Z" stroke="black" stroke-width="1.5" stroke-linecap="round" stroke-linejoin="round"/>
<path d="M17 15.608C16.988 17.954 16.891 19.224 16.123 20.052C15.244 21 13.83 21 11.001 21H7.001C4.171 21 2.758 21 1.879 20.052C1 19.106 1 17.58 1 14.53V13.452C1 10.402 1 8.876 1.879 7.929C2.52 7.237 3.447 7.05 5 7" stroke="black" stroke-width="1.5" stroke-linecap="round" stroke-linejoin="round"/>
</svg>
