<svg width="20" height="22" viewBox="0 0 20 22" fill="none" xmlns="http://www.w3.org/2000/svg">
<path d="M2.41698 10.9179L5.73998 8.89692C6.29698 8.55692 6.57598 8.38792 6.76798 8.15692C7.60098 7.15092 6.86798 5.66592 6.99198 4.49692C7.11998 3.28692 8.27398 1.63192 9.43698 1.11792C9.61458 1.03984 9.80647 0.999512 10.0005 0.999512C10.1945 0.999512 10.3864 1.03984 10.564 1.11792C11.727 1.63192 12.881 3.28692 13.01 4.49692C13.134 5.66592 12.4 7.15092 13.233 8.15692C13.426 8.38792 13.705 8.55692 14.262 8.89692L17.584 10.9179C18.6 11.5369 19.001 12.1979 19.001 13.4399C19.001 14.1159 18.701 14.2969 18.098 14.1589L12.274 12.8259L12.012 15.1149C11.917 15.9449 11.87 16.3599 12.007 16.7399C12.328 17.6299 13.418 18.3599 14.084 19.0069C14.452 19.3639 14.854 20.3929 14.434 20.8609C14.175 21.1509 13.754 20.9159 13.464 20.8029L10.676 19.7179C10.343 19.5879 10.176 19.5239 10.001 19.5239C9.82598 19.5239 9.65898 19.5889 9.32598 19.7179L6.53598 20.8029C6.24698 20.9159 5.82598 21.1499 5.56698 20.8609C5.14698 20.3929 5.54898 19.3639 5.91698 19.0069C6.58298 18.3589 7.67398 17.6299 7.99498 16.7399C8.13198 16.3599 8.08498 15.9449 7.98998 15.1149L7.72798 12.8259L1.90398 14.1589C1.29998 14.2969 1.00098 14.1159 1.00098 13.4389C1.00098 12.1969 1.40098 11.5369 2.41798 10.9189" stroke="black" stroke-width="1.5" stroke-linecap="round" stroke-linejoin="round"/>
</svg>
