<svg width="16" height="22" viewBox="0 0 16 22" fill="none" xmlns="http://www.w3.org/2000/svg">
<path d="M9.993 14H10M6 14H6.007M1 14C1 13.0807 1.18106 12.1705 1.53284 11.3212C1.88463 10.4719 2.40024 9.70026 3.05025 9.05025C3.70026 8.40024 4.47194 7.88463 5.32122 7.53284C6.17049 7.18106 7.08075 7 8 7C8.91925 7 9.82951 7.18106 10.6788 7.53284C11.5281 7.88463 12.2997 8.40024 12.9497 9.05025C13.5998 9.70026 14.1154 10.4719 14.4672 11.3212C14.8189 12.1705 15 13.0807 15 14C15 15.8565 14.2625 17.637 12.9497 18.9497C11.637 20.2625 9.85652 21 8 21C6.14348 21 4.36301 20.2625 3.05025 18.9497C1.7375 17.637 1 15.8565 1 14Z" stroke="black" stroke-width="1.5" stroke-linecap="round" stroke-linejoin="round"/>
<path d="M12.5 8.5V5.5C12.5 4.30653 12.0259 3.16193 11.182 2.31802C10.3381 1.47411 9.19347 1 8 1C6.80653 1 5.66193 1.47411 4.81802 2.31802C3.97411 3.16193 3.5 4.30653 3.5 5.5V8.5" stroke="black" stroke-width="1.5" stroke-linecap="round" stroke-linejoin="round"/>
</svg>
