<svg width="22" height="22" viewBox="0 0 22 22" fill="none" xmlns="http://www.w3.org/2000/svg">
<path d="M17 5H17.009M17 1C19.165 1 21 2.815 21 5.017C21 7.253 19.135 8.823 17.412 9.89C17.2865 9.96174 17.1445 9.99948 17 9.99948C16.8555 9.99948 16.7135 9.96174 16.588 9.89C14.868 8.814 13 7.262 13 5.017C13 2.815 14.835 1 17 1Z" stroke="black" stroke-width="1.5" stroke-linecap="round" stroke-linejoin="round"/>
<path d="M4 21C5.65685 21 7 19.6569 7 18C7 16.3431 5.65685 15 4 15C2.34315 15 1 16.3431 1 18C1 19.6569 2.34315 21 4 21Z" stroke="black" stroke-width="1.5" stroke-linecap="round" stroke-linejoin="round"/>
<path d="M10 6H8.5C6.567 6 5 7.343 5 9C5 10.657 6.567 12 8.5 12H11.5C13.433 12 15 13.343 15 15C15 16.657 13.433 18 11.5 18H10" stroke="black" stroke-width="1.5" stroke-linecap="round" stroke-linejoin="round"/>
</svg>
