<svg width="22" height="22" viewBox="0 0 22 22" fill="none" xmlns="http://www.w3.org/2000/svg">
<path d="M7.25 14.5C7.25 14.6989 7.32902 14.8897 7.46967 15.0303C7.61032 15.171 7.80109 15.25 8 15.25C8.19891 15.25 8.38968 15.171 8.53033 15.0303C8.67098 14.8897 8.75 14.6989 8.75 14.5H7.25ZM10.25 9.425C10.25 9.62391 10.329 9.81468 10.4697 9.95533C10.6103 10.096 10.8011 10.175 11 10.175C11.1989 10.175 11.3897 10.096 11.5303 9.95533C11.671 9.81468 11.75 9.62391 11.75 9.425H10.25ZM4.25 9.425C4.25 9.62391 4.32902 9.81468 4.46967 9.95533C4.61032 10.096 4.80109 10.175 5 10.175C5.19891 10.175 5.38968 10.096 5.53033 9.95533C5.67098 9.81468 5.75 9.62391 5.75 9.425H4.25ZM6 13.75C5.80109 13.75 5.61032 13.829 5.46967 13.9697C5.32902 14.1103 5.25 14.3011 5.25 14.5C5.25 14.6989 5.32902 14.8897 5.46967 15.0303C5.61032 15.171 5.80109 15.25 6 15.25V13.75ZM10 15.25C10.1989 15.25 10.3897 15.171 10.5303 15.0303C10.671 14.8897 10.75 14.6989 10.75 14.5C10.75 14.3011 10.671 14.1103 10.5303 13.9697C10.3897 13.829 10.1989 13.75 10 13.75V15.25ZM6.925 8.25H8V6.75H6.925V8.25ZM8 8.25H9.075V6.75H8V8.25ZM8.75 14.5V7.5H7.25V14.5H8.75ZM9.075 8.25C9.53 8.25 9.801 8.251 9.997 8.276C10.174 8.298 10.183 8.328 10.167 8.313L11.162 7.192C10.862 6.924 10.511 6.828 10.182 6.787C9.872 6.749 9.491 6.75 9.075 6.75V8.25ZM11.75 9.425C11.75 9.009 11.751 8.628 11.713 8.318C11.672 7.989 11.576 7.638 11.308 7.338L10.187 8.334C10.172 8.317 10.202 8.326 10.224 8.504C10.249 8.699 10.25 8.97 10.25 9.425H11.75ZM10.167 8.313C10.174 8.31929 10.1797 8.32596 10.186 8.333L11.308 7.338C11.2623 7.28648 11.2135 7.23773 11.162 7.192L10.167 8.313ZM6.925 6.75C6.509 6.75 6.128 6.749 5.818 6.787C5.489 6.828 5.138 6.924 4.838 7.192L5.834 8.313C5.817 8.328 5.826 8.298 6.004 8.276C6.199 8.251 6.47 8.25 6.925 8.25V6.75ZM5.75 9.425C5.75 8.97 5.751 8.699 5.776 8.503C5.798 8.326 5.828 8.317 5.813 8.333L4.692 7.338C4.424 7.638 4.328 7.989 4.287 8.318C4.249 8.628 4.25 9.009 4.25 9.425H5.75ZM4.838 7.192C4.786 7.238 4.738 7.286 4.692 7.338L5.813 8.333C5.81929 8.32597 5.82597 8.32029 5.833 8.314L4.838 7.192ZM6 15.25H10V13.75H6V15.25Z" fill="black"/>
<path d="M21 11C21 14.771 21 16.657 19.828 17.828C18.765 18.892 17.114 18.99 14 19M11 3H9C5.229 3 3.343 3 2.172 4.172C1 5.343 1 7.229 1 11C1 14.771 1 16.657 2.172 17.828C3.343 19 5.229 19 9 19H11M14 3C17.114 3.01 18.765 3.108 19.828 4.172C20.482 4.825 20.771 5.7 20.898 7M14 1V21" stroke="black" stroke-width="1.5" stroke-linecap="round"/>
</svg>
